<svg width="51" height="50" viewBox="0 0 51 50" fill="none" xmlns="http://www.w3.org/2000/svg">
<g clip-path="url(#clip0)">
<path d="M36.0417 32.0874C36.0009 32.0075 35.9557 31.9298 35.9063 31.8548C34.547 30.2199 33.298 28.4775 31.7979 26.9799C30.125 25.3133 29.3482 23.4704 29.7331 21.166C29.742 21.1114 29.7135 21.0426 29.7331 20.9898C29.9112 20.6727 30.011 20.2622 30.2782 20.0684C31.0319 19.5152 31.9191 19.1311 32.6371 18.5409C34.8017 16.7632 37.2461 16.129 40.0165 16.4443C40.6115 16.5113 40.9963 16.6434 41.3313 17.1491C42.0136 18.1674 42.7672 19.1381 43.5511 20.2093C44.9034 17.2266 46.2111 14.3777 47.4707 11.5095C47.5775 11.2646 47.4707 10.8453 47.3174 10.5846C46.3037 8.79106 45.2258 7.02749 44.2068 5.23221C43.9449 4.77238 43.6491 4.61911 43.1289 4.6332C40.7594 4.69134 38.3899 4.7301 36.0221 4.72834C35.3412 4.73685 34.6626 4.64844 34.0071 4.46583C29.1778 3.03172 24.355 1.57353 19.5388 0.0912684C19.3034 0.00526239 19.0502 -0.0220476 18.8016 0.0117547C18.553 0.045557 18.3167 0.139429 18.1135 0.285067C12.4742 3.87093 6.82827 7.44563 1.17585 11.0092C0.819535 11.2329 0.473905 11.4637 0.131838 11.6875C1.04936 13.3717 2.8363 13.7417 4.54485 12.6512C9.23758 9.64377 13.9214 6.62052 18.6195 3.62192C18.901 3.44574 19.3321 3.25547 19.61 3.34708C21.65 4.03771 23.6667 4.79529 25.908 5.61276C24.6947 6.15364 23.6079 6.51481 22.6548 7.09268C21.0318 8.074 19.4604 8.20085 17.7607 7.32876C17.4757 7.18253 16.918 7.28119 16.6259 7.47323C15.1756 8.42636 13.7753 9.44293 12.35 10.4454C10.711 11.6082 10.6825 11.6223 11.2971 13.5638C11.4984 14.1998 11.3434 14.5011 10.8143 14.8658C7.48449 17.1561 4.18141 19.4711 0.871201 21.7826C0.587927 21.9887 0.292182 22.1984 0 22.4186C1.14913 23.9408 2.79176 24.2139 4.3275 23.1533C7.22794 21.1507 10.1171 19.1293 12.995 17.0892C13.2131 16.9147 13.469 16.7921 13.7427 16.731C14.0164 16.6699 14.3006 16.6719 14.5735 16.7368C15.6228 16.9553 16.6936 17.0733 17.7447 17.2336C17.8362 16.873 17.8547 16.498 17.7991 16.1303C17.7435 15.7626 17.6148 15.4094 17.4206 15.0911C17.2263 14.7727 16.9703 14.4955 16.6673 14.2754C16.3643 14.0553 16.0202 13.8967 15.6549 13.8087C15.434 13.7523 15.181 13.7646 14.9904 13.6607C14.7997 13.5567 14.5236 13.3577 14.4559 13.148C14.4078 12.9982 14.5877 12.7023 14.7481 12.5737C15.2095 12.1984 15.7654 11.9253 16.1912 11.5166C17.1532 10.5969 18.1652 10.4401 19.3214 11.1061C19.9949 11.4937 20.6309 11.3897 21.3364 11.062C24.1775 9.75007 27.0375 8.47746 29.9166 7.24419C30.4541 7.02854 31.0475 6.98963 31.6091 7.1332C33.5212 7.70592 35.5206 7.93973 37.5151 7.82383C38.3899 7.76216 39.2735 7.81326 40.1982 7.81326C40.274 8.14604 40.3169 8.48531 40.3265 8.82629C40.2766 9.66667 40.6454 10.2357 41.2867 10.7643C42.076 11.4038 42.7833 12.142 43.5636 12.8784L42.924 13.8087C42.4074 13.6325 42.0332 13.4087 41.6573 13.4017C39.6595 13.3665 37.6618 13.3665 35.664 13.4017C35.2707 13.4164 34.8878 13.5311 34.5523 13.7347C32.1044 15.2375 29.6868 16.7861 27.2335 18.2801C26.7168 18.5937 26.5636 18.9567 26.5779 19.5134C26.6099 20.8383 26.6313 22.1684 26.5654 23.4916C26.527 23.9145 26.3269 24.307 26.006 24.5892C23.6097 26.4602 21.1725 28.2889 18.7513 30.1212C16.9893 31.4584 15.2273 32.7974 13.4065 34.1875C16.3853 38.4898 19.3285 42.741 22.2682 46.9905C23.8128 46.0426 24.1834 44.376 23.175 42.8538C22.0918 41.2259 20.9516 39.6403 19.8416 38.0282C19.129 36.987 18.4164 35.9422 17.6521 34.8429L27.8072 27.1579L31.6269 31.536L24.2208 37.1825L33.0896 49.9926C34.636 48.9849 34.9888 47.3111 33.9804 45.8277C32.4536 43.5779 30.8911 41.3527 29.3482 39.117C29.0632 38.7047 28.7835 38.2907 28.4788 37.8414L36.0417 32.0874ZM11.4557 43.999C12.9754 42.9894 13.3406 41.3386 12.3714 39.8781C11.2472 38.178 10.0553 36.5201 8.90086 34.8411C8.22742 33.8686 7.55932 32.8908 6.86093 31.8777C7.10679 31.6698 7.2903 31.5007 7.48805 31.3492C10.0536 29.3713 12.6202 27.3945 15.1881 25.419C17.62 23.5462 20.0643 21.6875 22.4802 19.7971C23.9411 18.6519 24.1246 16.765 22.8971 15.5916L2.57797 31.1836L11.4557 43.999ZM32.6371 39.2879C34.1372 41.2259 35.5981 43.1339 37.1035 45.0067C37.2425 45.1829 37.7146 45.2463 37.9551 45.1582C42.1009 43.6607 46.2324 42.1191 50.3764 40.6181C50.8735 40.4419 51.0036 40.1864 51 39.6966C50.9768 37.2706 51 34.8446 50.9857 32.4186C50.9728 32.1971 50.9472 31.9766 50.9091 31.7579C48.2367 31.7579 45.6481 31.7579 43.0523 31.7703C42.9303 31.7741 42.8102 31.8019 42.6992 31.8522C42.5881 31.9024 42.4883 31.974 42.4056 32.0627C41.611 33.1198 40.8538 34.191 40.0895 35.2551C41.2796 36.1959 42.6443 36.1977 43.7489 35.3203C43.9467 35.1653 44.1533 34.9063 44.3618 34.8992C45.518 34.857 46.6778 34.8799 47.9 34.8799C47.9 35.9264 47.9339 36.8566 47.8751 37.7798C47.8608 38.0018 47.5793 38.3083 47.3406 38.3982C44.5756 39.4553 41.7945 40.4524 39.0277 41.4954C38.5591 41.6716 38.2936 41.5571 38.0228 41.1818C37.6354 40.6259 37.2191 40.0902 36.7757 39.5768C35.6729 38.3418 34.0428 38.2079 32.6371 39.2879ZM46.9789 20.7889C45.3898 21.5412 44.8179 23.1709 45.5697 24.7248C45.9456 25.5018 46.3732 26.2541 46.7847 27.0293C44.8036 27.6741 43.9752 28.7012 44.2317 30.2005C45.3523 30.2005 46.5086 30.0596 47.6167 30.234C49.2505 30.4894 50.0878 29.7213 50.6294 28.3841C50.7132 28.178 50.7755 27.8749 50.6847 27.7023C49.4643 25.3802 48.2171 23.0793 46.9789 20.7889ZM32.1917 8.88972L25.1241 12.7111C25.108 12.8133 25.0902 12.9172 25.0742 13.0194C25.4296 13.1964 25.7983 13.3461 26.177 13.4669C26.5333 13.5532 26.9092 13.4986 27.2691 13.5532C28.3897 13.7294 29.5086 13.9056 30.6987 14.1099C31.1833 12.4204 31.659 10.759 32.1952 8.8862L32.1917 8.88972ZM42.3824 20.6357H34.4383L34.2459 20.8242C34.4882 21.1431 34.6824 21.5166 34.9834 21.7632C35.3683 22.0803 35.8546 22.2724 36.2662 22.5613C37.1178 23.1603 37.9462 23.7946 38.8317 24.4376L42.3824 20.6357Z" fill="white"/>
<path d="M36.0421 32.0874L28.4757 37.8485C28.7803 38.2978 29.06 38.7118 29.3451 39.124C30.8915 41.3598 32.454 43.5849 33.9773 45.8348C34.9839 47.3182 34.6311 48.9919 33.0865 49.9997L24.2177 37.1896L31.6273 31.536L27.8058 27.1508L17.6507 34.8358C18.4043 35.9405 19.117 36.987 19.8421 38.0282C20.952 39.6403 22.0922 41.2259 23.1701 42.8538C24.1785 44.376 23.8079 46.0426 22.2633 46.9905C19.3236 42.741 16.384 38.4898 13.4016 34.1875C15.2277 32.7974 16.9897 31.4584 18.7464 30.1212C21.1676 28.2819 23.6048 26.4602 26.001 24.5892C26.322 24.307 26.522 23.9145 26.5605 23.4916C26.6264 22.1684 26.605 20.8383 26.5729 19.5134C26.5587 18.9496 26.7119 18.5867 27.2286 18.2801C29.6818 16.7861 32.0994 15.2375 34.5474 13.7347C34.8832 13.5259 35.2681 13.4069 35.6644 13.3894C37.661 13.3565 39.6588 13.3565 41.6577 13.3894C42.0354 13.3894 42.4078 13.6237 42.9244 13.7963L43.564 12.8661C42.7837 12.1367 42.0764 11.3985 41.2871 10.7519C40.6458 10.2234 40.277 9.6561 40.3269 8.81396C40.3173 8.47297 40.2744 8.13371 40.1986 7.80092C39.2739 7.80092 38.3903 7.74983 37.5155 7.8115C35.5211 7.92739 33.5216 7.69358 31.6095 7.12087C31.0479 6.9773 30.4545 7.01621 29.917 7.23186C27.0356 8.46747 24.1755 9.74478 21.3368 11.0638C20.6242 11.3915 19.9953 11.4954 19.3218 11.1078C18.1656 10.4419 17.1536 10.5987 16.1916 11.5183C15.7658 11.9253 15.2099 12.1984 14.7485 12.5754C14.5881 12.704 14.4082 13 14.4563 13.1498C14.524 13.3594 14.7752 13.5444 14.9908 13.6624C15.2063 13.7805 15.4344 13.7541 15.6553 13.8104C16.0204 13.8985 16.3643 14.0571 16.6672 14.277C16.9701 14.497 17.226 14.774 17.4202 15.0922C17.6145 15.4103 17.7431 15.7633 17.7989 16.1308C17.8547 16.4983 17.8364 16.8731 17.7451 17.2336C16.694 17.0733 15.6232 16.9553 14.5739 16.7368C14.3011 16.6719 14.0168 16.6699 13.7431 16.731C13.4694 16.7921 13.2136 16.9147 12.9954 17.0892C10.1199 19.1317 7.23132 21.1531 4.3297 23.1533C2.79396 24.2104 1.15133 23.9408 0.00219727 22.4186C0.294379 22.2054 0.582998 21.9887 0.878743 21.7826C4.18895 19.4711 7.49203 17.1491 10.8218 14.8658C11.3563 14.5011 11.506 14.1998 11.3046 13.5638C10.69 11.6258 10.7185 11.6082 12.3576 10.4454C13.7722 9.44293 15.1761 8.42636 16.6227 7.47323C16.9149 7.28119 17.4725 7.18253 17.7576 7.32876C19.4572 8.20085 21.0286 8.074 22.6516 7.09268C23.6048 6.51481 24.6916 6.15364 25.9048 5.61276C23.6636 4.79529 21.6468 4.03771 19.6069 3.34708C19.3361 3.25547 18.8943 3.44222 18.6163 3.62192C13.9183 6.61699 9.23443 9.64377 4.54171 12.6512C2.83672 13.7417 1.04978 13.3717 0.132254 11.6875C0.47432 11.4637 0.821732 11.2329 1.17627 11.0092C6.82393 7.43623 12.4704 3.86153 18.1157 0.285067C18.3189 0.139429 18.5552 0.045557 18.8038 0.0117547C19.0524 -0.0220476 19.3056 0.00526239 19.541 0.0912684C24.3584 1.57001 29.1812 3.0282 34.0093 4.46583C34.6648 4.64844 35.3434 4.73685 36.0243 4.72834C38.392 4.72834 40.7616 4.69134 43.1311 4.6332C43.6513 4.61911 43.9471 4.77238 44.209 5.23221C45.228 7.02749 46.3059 8.79106 47.3285 10.5828C47.4764 10.8436 47.5887 11.2629 47.4818 11.5078C46.2204 14.376 44.9127 17.2248 43.5622 20.2076C42.7783 19.1364 42.0247 18.1656 41.3424 17.1473C41.0074 16.6434 40.6297 16.5113 40.0276 16.4426C37.2572 16.1272 34.8128 16.7615 32.6482 18.5391C31.9355 19.1293 31.0447 19.5134 30.2893 20.0666C30.0221 20.2604 29.9152 20.6709 29.7442 20.988C29.7192 21.0321 29.7442 21.1008 29.7442 21.1642C29.3594 23.4775 30.1361 25.3203 31.809 26.9782C33.3092 28.4757 34.5581 30.2181 35.9174 31.8531C35.9632 31.9289 36.0049 32.0071 36.0421 32.0874Z" fill="white"/>
<path d="M11.4556 43.9993L2.57788 31.1839L22.8881 15.5955C24.1156 16.7689 23.9321 18.6557 22.4712 19.8009C20.0553 21.6913 17.611 23.55 15.1791 25.4228C12.6148 27.3972 10.0493 29.3728 7.48262 31.3495C7.28486 31.5011 7.10136 31.6702 6.8555 31.8781C7.55388 32.8911 8.22198 33.8689 8.89542 34.8414C10.0535 36.5204 11.2418 38.1783 12.366 39.8784C13.3352 41.339 12.9699 42.988 11.4556 43.9993Z" fill="white"/>
<path d="M32.637 39.2882C34.0426 38.2065 35.6657 38.3404 36.7738 39.5772C37.2172 40.0905 37.6335 40.6263 38.0209 41.1822C38.2918 41.5574 38.5554 41.6719 39.0258 41.4958C41.7926 40.4528 44.5737 39.4485 47.3387 38.3985C47.5685 38.3122 47.85 38.0021 47.8732 37.7801C47.932 36.8569 47.8981 35.9267 47.8981 34.8802C46.6742 34.8802 45.5161 34.8573 44.3599 34.8996C44.1514 34.8996 43.9448 35.1656 43.747 35.3206C42.6424 36.2015 41.2777 36.2015 40.0876 35.2555C40.8537 34.1984 41.6109 33.1131 42.4037 32.0631C42.4864 31.9743 42.5862 31.9027 42.6973 31.8525C42.8083 31.8023 42.9284 31.7744 43.0504 31.7706C45.6462 31.7512 48.2402 31.7583 50.9072 31.7583C50.9453 31.9769 50.9709 32.1975 50.9838 32.4189C50.9838 34.845 50.9749 37.271 50.9981 39.697C50.9981 40.1867 50.8716 40.4387 50.3745 40.6184C46.2305 42.1194 42.099 43.661 37.9532 45.1586C37.7127 45.2467 37.2406 45.1797 37.1016 45.007C35.598 43.136 34.1371 41.2262 32.637 39.2882Z" fill="white"/>
<path d="M46.979 20.7893C48.2172 23.0797 49.4643 25.3841 50.6829 27.6973C50.7738 27.8735 50.7114 28.173 50.6277 28.3792C50.0932 29.7164 49.2487 30.4845 47.615 30.229C46.5086 30.0529 45.3524 30.1956 44.23 30.1956C43.9734 28.7016 44.8018 27.6744 46.783 27.0243C46.3714 26.2491 45.9438 25.4968 45.5679 24.7199C44.8179 23.1677 45.3898 21.5381 46.979 20.7893Z" fill="white"/>
<path d="M32.1953 8.88654C31.6608 10.7593 31.1833 12.4207 30.6987 14.1103C29.5086 13.9147 28.3826 13.7227 27.2691 13.5536C26.9128 13.4989 26.5262 13.5536 26.177 13.4672C25.7983 13.3464 25.4296 13.1968 25.0742 13.0197C25.0903 12.9175 25.1081 12.8136 25.1241 12.7114L32.1953 8.88654Z" fill="white"/>
<path d="M42.3861 20.6325L38.8229 24.4345C37.9321 23.7844 37.109 23.1572 36.2574 22.5582C35.8458 22.2692 35.3666 22.0772 34.9746 21.7601C34.6736 21.5134 34.4794 21.1399 34.2371 20.821L34.4295 20.6325H42.3861ZM37.5615 21.9186C38.0532 22.271 38.3365 22.4771 38.6732 22.7202L39.3859 21.9186H37.5615Z" fill="white"/>
</g>
<defs>
<clipPath id="clip0">
<rect width="51" height="50" fill="white"/>
</clipPath>
</defs>
</svg>
